<svg xmlns="http://www.w3.org/2000/svg" width="18" height="15" viewBox="0 0 18 15">
  <defs>
    <style>
      .cls-1 {
        fill: #fff;
        fill-rule: evenodd;
        opacity: 0.5;
      }
    </style>
  </defs>
  <path id="icon_credit" class="cls-1" d="M401.275,16.959V16.026a0.3,0.3,0,0,0,0-.089V15.8h-0.018a2.852,2.852,0,0,0-1.875-1.993,11.5,11.5,0,0,0-8.481,0,2.764,2.764,0,0,0-1.882,2.073l-0.011.047a0.3,0.3,0,0,0-.008.08V23.1c0,0.843.672,1.622,1.893,2.193a10.494,10.494,0,0,0,4.252.811,12.355,12.355,0,0,0,1.7-.117A5.771,5.771,0,0,0,401.27,28,5.632,5.632,0,0,0,407,22.484,5.636,5.636,0,0,0,401.275,16.959Zm-6.13,2.064a12.242,12.242,0,0,0,1.769-.122,5.438,5.438,0,0,0-1.039,1.742c-0.267.019-.509,0.029-0.738,0.029a9.557,9.557,0,0,1-3.928-.747,2.081,2.081,0,0,1-1.484-1.6V17.452a4.46,4.46,0,0,0,1.175.76A10.408,10.408,0,0,0,395.145,19.023Zm-0.008,2.334c0.18,0,.355,0,0.531-0.012a5.449,5.449,0,0,0-.12,1.14,5.56,5.56,0,0,0,.037.667c-0.146.008-.3,0.012-0.448,0.012a9.792,9.792,0,0,1-3.928-.748,2.085,2.085,0,0,1-1.484-1.594V19.8a4.533,4.533,0,0,0,1.167.752A10.429,10.429,0,0,0,395.137,21.357Zm5.42-5.346a1.507,1.507,0,0,1-.727,1.127,5.983,5.983,0,0,0-1.856.831,11.034,11.034,0,0,1-2.829.361,9.7,9.7,0,0,1-3.937-.747,2.248,2.248,0,0,1-1.483-1.453v-0.12a0.088,0.088,0,0,0-.007-0.045h0a2.181,2.181,0,0,1,1.492-1.526,10.694,10.694,0,0,1,7.857,0,2.158,2.158,0,0,1,1.491,1.54l0.139-.005Zm-10.832,6.272a4.544,4.544,0,0,0,1.167.753,10.418,10.418,0,0,0,4.245.811c0.2,0,.385,0,0.576-0.009a5.315,5.315,0,0,0,.663,1.506,11.319,11.319,0,0,1-1.231.07,9.716,9.716,0,0,1-3.937-.748,2.088,2.088,0,0,1-1.483-1.572V22.284Zm16.556,0.2a5.011,5.011,0,1,1-5.012-4.833A4.93,4.93,0,0,1,406.281,22.484Z" transform="translate(-389 -13)"/>
</svg>
