<svg xmlns="http://www.w3.org/2000/svg" width="15.969" height="15" viewBox="0 0 15.969 15">
  <defs>
    <style>
      .cls-1 {
        fill: #fff;
        fill-rule: evenodd;
        opacity: 0.5;
      }
    </style>
  </defs>
  <path id="icon_service" class="cls-1" d="M745.055,22.8l6.212-5.984,0.091,0.087a0.49,0.49,0,0,0,.633-0.006l1.574-1.659a0.433,0.433,0,0,0,.134-0.356,0.331,0.331,0,0,0-.134-0.247L752.9,14a0.44,0.44,0,0,0-.622-0.006L750.571,15.5a0.339,0.339,0,0,0-.149.322,0.44,0.44,0,0,0,.127.3l0.091,0.087L744.4,22.193l-0.862-.831a0.5,0.5,0,0,0-.664,0l-3.381,3.256a1.589,1.589,0,0,0,0,2.3l0.625,0.6a1.736,1.736,0,0,0,2.391,0l3.381-3.256a0.438,0.438,0,0,0,.127-0.3,0.433,0.433,0,0,0-.123-0.3Zm-4.24,4.083-0.625-.6a0.74,0.74,0,0,1,0-1.059l1.963-1.858,1.691,1.661-1.929,1.858A0.809,0.809,0,0,1,740.815,26.884Zm4.163-2.923-0.467.428-1.694-1.662,0.44-.424Zm7.652-9.018-0.964,1.013-0.133-.128,1.051-.929Zm-9.238,4.021,1.793,1.727a0.462,0.462,0,0,0,.627,0,0.441,0.441,0,0,0,0-.64l-2.021-1.947a0.487,0.487,0,0,0-.5-0.107,2.2,2.2,0,0,1-2.368-.318,1.807,1.807,0,0,1-.534-1.572l1.083,1.043a0.492,0.492,0,0,0,.486.112l1.232-.433a0.376,0.376,0,0,0,.246-0.26l0.471-1.188a0.44,0.44,0,0,0-.118-0.463l-1.079-1.039a2.114,2.114,0,0,1,1.664.511,2.011,2.011,0,0,1,.323,2.3,0.366,0.366,0,0,0,.118.463l2.021,1.948a0.484,0.484,0,0,0,.664,0,0.441,0.441,0,0,0,0-.64l-1.794-1.729a2.891,2.891,0,0,0-.668-2.944,3.14,3.14,0,0,0-3.372-.528,0.7,0.7,0,0,0-.266.29l-0.019.038v0.041a0.486,0.486,0,0,0,.127.373l1.424,1.372-0.262.7-0.729.253-1.422-1.337a0.59,0.59,0,0,0-.388-0.158,0.387,0.387,0,0,0-.362.27,2.863,2.863,0,0,0,.53,3.256A3.14,3.14,0,0,0,743.392,18.965Zm10.8,3.67a3.049,3.049,0,0,0-3.057-.609L748.9,19.875a0.485,0.485,0,0,0-.664,0,0.442,0.442,0,0,0,0,.64l2.462,2.372a0.487,0.487,0,0,0,.5.107,2.2,2.2,0,0,1,2.368.318,1.847,1.847,0,0,1,.532,1.6l-1.08-1.041a0.481,0.481,0,0,0-.482-0.114l-1.236.4a0.374,0.374,0,0,0-.247.262l-0.434,1.15a0.441,0.441,0,0,0,.118.465l1.079,1.039a2.117,2.117,0,0,1-1.664-.511,2.011,2.011,0,0,1-.323-2.3,0.372,0.372,0,0,0-.118-0.465l-2.462-2.372a0.484,0.484,0,0,0-.664,0,0.442,0.442,0,0,0,0,.64l2.233,2.151a2.78,2.78,0,0,0,.633,2.947,2.877,2.877,0,0,0,2.041.795,3.333,3.333,0,0,0,1.331-.266,0.406,0.406,0,0,0,.249-0.336,0.483,0.483,0,0,0-.128-0.372l-1.424-1.372,0.262-.7,0.728-.252,1.424,1.372a0.421,0.421,0,0,0,.42.121,0.435,0.435,0,0,0,.317-0.242A2.734,2.734,0,0,0,754.188,22.635Z" transform="translate(-739.031 -13)"/>
</svg>
