<svg xmlns="http://www.w3.org/2000/svg" width="16" height="16" viewBox="0 0 16 16">
  <defs>
    <style>
      .cls-1 {
        fill: #fff;
        fill-rule: evenodd;
        opacity: 0.5;
      }
    </style>
  </defs>
  <path id="icon_contact" class="cls-1" d="M949,21.079a2.774,2.774,0,1,0-2.941-2.769A2.858,2.858,0,0,0,949,21.079Zm0-4.611a1.845,1.845,0,1,1-1.956,1.842A1.9,1.9,0,0,1,949,16.468ZM944.846,21.9h0L944.938,22c0.023,0.024.046,0.048,0.07,0.069h0L949,26.022l3.986-3.957h0A0.077,0.077,0,0,0,953,22.05l0.072-.07,0.075-.077h0l0,0a5.134,5.134,0,0,0,1.488-3.589,5.651,5.651,0,0,0-11.281,0,5.133,5.133,0,0,0,1.488,3.589ZM949,13.93a4.529,4.529,0,0,1,4.654,4.383,4.22,4.22,0,0,1-1.086,2.81l-0.182.19a0.73,0.73,0,0,1-.1.1h0L949,24.673l-3.289-3.261h0a1.172,1.172,0,0,1-.1-0.1l-0.153-.19h-0.026a4.213,4.213,0,0,1-1.088-2.81A4.529,4.529,0,0,1,949,13.93Zm5.367,8.187a0.5,0.5,0,0,0-.653.229,0.455,0.455,0,0,0,.241.616c1.314,0.568,2.068,1.335,2.068,2.1,0,1.451-2.822,3.005-7.023,3.005s-7.014-1.555-7.014-3.005c0-.767.751-1.534,2.06-2.1a0.453,0.453,0,0,0,.239-0.616,0.508,0.508,0,0,0-.654-0.227c-1.7.74-2.63,1.785-2.63,2.944,0,2.206,3.513,3.934,8,3.934S957,27.268,957,25.061C957,23.9,956.065,22.855,954.362,22.117Z" transform="translate(-941 -13)"/>
</svg>
