<svg id="Layer_1" data-name="Layer 1" xmlns="http://www.w3.org/2000/svg" viewBox="0 0 336 105"><defs><style>.cls-1{fill:#6b23a7;}.cls-2{fill:#e01186;}</style></defs><title>logotype_top</title><path class="cls-1" d="M45.59,55.72q0,1.67-7.63,16.36L28.3,90.42A1.65,1.65,0,0,1,27,91.57H19.19a1.59,1.59,0,0,1-1.09-1.15L8.83,72.63Q1,57.59,1,56.2q0-3.13.22-9.43t0.21-9.43q0-1.47.93-1.47,0.74,0,2.16.12t2.16,0.12q0.7,0,2.14-.12T11,35.87a0.74,0.74,0,0,1,.9.75q0,3.22-.41,9.69T11,56q0,2.7,12.07,24.06,3.2-5.56,6.93-12.74Q35.47,57,35.47,55.13q0-3.1-.19-9.25t-0.2-9.21a0.73,0.73,0,0,1,.86-0.79q0.74,0,2.18.12t2.14,0.12q0.7,0,2.12-.12t2.12-.12a0.85,0.85,0,0,1,1,.75,6.9,6.9,0,0,0,0,1.51q0,2.94.08,8.79t0.08,8.79"/><path class="cls-1" d="M82.13,70.25a3.83,3.83,0,0,1-2.49,3.93q-1.68.64-24.11,2.34a9,9,0,0,0,3.78,6A10.94,10.94,0,0,0,66,84.82a17.84,17.84,0,0,0,11.29-4l1.25-1a0.71,0.71,0,0,1,.41.08q0.1,0.08,1.46,2.76a23.88,23.88,0,0,1,1.36,2.88,2.09,2.09,0,0,1-.62.91,19.1,19.1,0,0,1-14.68,6.19q-9,0-14.41-5.5T46.69,72.4a21.38,21.38,0,0,1,5.14-14.25,16.85,16.85,0,0,1,13.28-6.31,15.74,15.74,0,0,1,12.23,5.48,18.65,18.65,0,0,1,4.79,12.94m-9.27-2.42a8.72,8.72,0,0,0-8.3-8.38,8.55,8.55,0,0,0-6.37,2.94A9.34,9.34,0,0,0,55.41,69q0,0.83,1.4.83A95.93,95.93,0,0,0,70.6,68.62q2.26-.32,2.26-0.79"/><path class="cls-1" d="M121.1,90.78a0.73,0.73,0,0,1-.78.87l-3.84,0-3.84,0q-0.7,0-.7-1.15,0-1.95.12-5.92t0.12-6q0-1.59,0-4.74t0-4.75q0-4.52-1.29-6.39-1.56-2.22-5.76-2.22-1.95,0-5.41,2.22Q96,65,96,66.84V90.66c0,0.66-.25,1-0.74,1l-3.74,0-3.74,0a0.77,0.77,0,0,1-.82-0.91q0-3.13.1-9.41t0.1-9.45a65.5,65.5,0,0,0-1.75-15.6,1.89,1.89,0,0,1-.12-0.52,0.59,0.59,0,0,1,.51-0.56l4.46-.73q4.19-.7,4.38-0.69t0.31,0.63a26,26,0,0,0,.9,5q2-1.63,5.34-4.05a15,15,0,0,1,7.91-2.54q7.32,0,10,4.33,2,3.17,2,10.28,0,1.23-.06,3.77t-0.06,3.81q0,2.66.08,7.94t0.08,7.94"/><path class="cls-1" d="M165.28,36.19q0,5.12-.45,15.34t-0.45,15.3q0,15.68.66,23.74l0,0.52c0,0.27-.33.44-1.05,0.51a13.25,13.25,0,0,1-2.1,0l-1.52-.12q-0.59,0-1.71.12c-0.75.08-1.32,0.12-1.71,0.12s-0.58-.92-0.64-2.76-0.16-2.77-.29-2.8a2.25,2.25,0,0,0-.58.52q-5.34,5.88-12.27,5.87a16,16,0,0,1-12.93-6.11,21,21,0,0,1-4.79-13.89,21.37,21.37,0,0,1,4.83-14.21,16.41,16.41,0,0,1,13.2-6,13.28,13.28,0,0,1,8.57,2.94q1.67,1.47,3.31,3a0.52,0.52,0,0,0,.31-0.56V44.8q0-1.31-.12-4t-0.12-4c0-.63.21-1,0.62-1q1.44,0,4.28-.26t4.24-.26a0.67,0.67,0,0,1,.66.84m-9.74,36.13a13,13,0,0,0-2.88-8.38A9.41,9.41,0,0,0,145,60.09a9.78,9.78,0,0,0-7.91,3.81,13,13,0,0,0-3,8.58,12.24,12.24,0,0,0,3.08,8.3A9.82,9.82,0,0,0,145,84.51a9.48,9.48,0,0,0,7.71-3.77,13.12,13.12,0,0,0,2.8-8.42"/><path class="cls-1" d="M249.59,90.18c0,1-.27,1.47-0.82,1.47l-3.66,0-3.66,0q-1,0-1-1.31,0-1.91.14-5.76t0.14-5.8q0-1.83-.14-5.54t-0.14-5.58q0-7.15-6.62-7.15-2.14,0-5.61,2.18-3.7,2.34-3.7,4.29V90.5q0,1.15-.82,1.15l-3.62,0-3.62,0a0.88,0.88,0,0,1-.9-1.07V71.32q0-4.68-.51-19.93-0.08-4.72-.66-14a4.93,4.93,0,0,1-.08-0.64,0.77,0.77,0,0,1,.47-0.83,21.22,21.22,0,0,1,4.4-.24,15.09,15.09,0,0,0,2.45-.3,15,15,0,0,1,2.38-.3q0.51,0,.51.75,0,3.73-.29,11.22T224,58.3q0,0.91.31,1,2-1.71,5.14-4.13a14.8,14.8,0,0,1,8.06-2.42q7.32,0,10.09,4.45,2,3.26,2,10.32,0,1.23-.06,3.79t-0.06,3.79q0,2.54.08,7.58t0.08,7.54"/><path class="cls-1" d="M291.62,72.24a20.34,20.34,0,0,1-5.34,14.17,18.15,18.15,0,0,1-27.07,0,20.2,20.2,0,0,1-5.34-14.13,20.2,20.2,0,0,1,5.34-14.13,18.31,18.31,0,0,1,27,0,19.93,19.93,0,0,1,5.37,14.06m-8.22.08a12.27,12.27,0,0,0-2.92-8.26,9.64,9.64,0,0,0-7.71-3.61A9.8,9.8,0,0,0,265,64a13.12,13.12,0,0,0,0,16.56,9.9,9.9,0,0,0,15.42,0,12.47,12.47,0,0,0,2.92-8.26"/><path class="cls-1" d="M335,72.48a20.94,20.94,0,0,1-5,13.94,16.26,16.26,0,0,1-13,6.23,12.7,12.7,0,0,1-8.45-3.06Q307,88,305.32,86.45a0.81,0.81,0,0,0-.31.64q0,0.24,0,4.45l0,11.2q0,1.27-.9,1.27-6,0-7.09-.16a0.93,0.93,0,0,1-.9-1q0-5.08.08-15.25t0.08-15.25A123.89,123.89,0,0,0,295,54.81a5,5,0,0,1-.08-0.64,0.52,0.52,0,0,1,.39-0.55q1.48-.08,4.32-0.44,3.82-.72,4.28-0.72,0.66,0,.86,2.38,0.12,1.59.19,3.14a1.07,1.07,0,0,0,.23.64,2.76,2.76,0,0,0,.62-0.56q5.45-5.68,11-5.68a16.52,16.52,0,0,1,13,6.15A20.66,20.66,0,0,1,335,72.48m-9.11-.16A12.93,12.93,0,0,0,323,63.94a9.45,9.45,0,0,0-7.67-3.85,8.78,8.78,0,0,0-7.4,4,13.63,13.63,0,0,0-2.65,8.34A13.47,13.47,0,0,0,308,80.81a9.27,9.27,0,0,0,7.63,3.85,9.09,9.09,0,0,0,7.48-4,13.54,13.54,0,0,0,2.8-8.34"/><path class="cls-2" d="M30.2,3.51a28.39,28.39,0,0,0-9.61-.92C11.5,3.46,10,11.87,16.7,15.34c3.51,1.83,7.93,2.87,11.66,4.46,4.69,2,8.37,6,5.89,10.46a7.7,7.7,0,0,1-1.14,1.61,27.08,27.08,0,0,1-10.73,6.51L23,38c13.29-11.88,1.49-13.84-7.73-17.12-3-1.07-5.74-2.28-7.24-4C5,13.28,4.26,7.68,10.35,3.62A18.87,18.87,0,0,1,20.61,1a19.29,19.29,0,0,1,9,2.15c0.22,0.11.42,0.24,0.62,0.37"/><path class="cls-2" d="M204.09,37.06a29.38,29.38,0,0,0-8.49-1.65c-4.22-.09-8.17.79-11.56,3.54a9.81,9.81,0,0,0-3.37,4.84,7.63,7.63,0,0,0,1.39,7,20.71,20.71,0,0,0,8.24,6.41c3.44,1.65,6.94,3.15,10.34,4.88a20,20,0,0,1,7.79,6.49,10.05,10.05,0,0,1,.88,10.58A16,16,0,0,1,206.73,83a38.07,38.07,0,0,1-12.79,9.05,8.83,8.83,0,0,1,.64-0.7,37.94,37.94,0,0,0,7.93-9,10.42,10.42,0,0,0,1.8-7.51,8.88,8.88,0,0,0-3.71-5.41A37.32,37.32,0,0,0,192,64.87c-3.33-1.43-6.66-2.92-9.86-4.62a19.1,19.1,0,0,1-6.46-5.86c-4-5.62-3.34-11.88,1.89-16.36a22.27,22.27,0,0,1,25.7-1.56c0.29,0.19.56,0.39,0.84,0.59"/></svg>