<svg xmlns="http://www.w3.org/2000/svg" width="23" height="35" viewBox="0 0 23 35">
  <defs>
    <style>
      .cls-1 {
        fill: #fff;
        fill-rule: evenodd;
      }
    </style>
  </defs>
  <path id="icon_dollar" class="cls-1" d="M1374.53,1427.07a13.14,13.14,0,0,0-4.79-1.99l-1.66-.36v-6.9a0.175,0.175,0,0,0,.14.07,0.063,0.063,0,0,1,.07.07,3.753,3.753,0,0,1,2.25,3.42h5.59a7.989,7.989,0,0,0-3.27-6.55,11.4,11.4,0,0,0-4.78-1.99V1409h-5.16v3.7a10.238,10.238,0,0,0-5.73,2.28,7.764,7.764,0,0,0-2.75,6.11,6.639,6.639,0,0,0,2.83,5.91,17.443,17.443,0,0,0,5.65,1.99v7.4a4.711,4.711,0,0,1-2.32-1.35,5.036,5.036,0,0,1-1.09-2.71H1354a7.919,7.919,0,0,0,3.12,6.62,12.186,12.186,0,0,0,5.8,2.2V1444h5.16v-2.77a11.8,11.8,0,0,0,6.02-2.35,7.92,7.92,0,0,0,2.9-6.26A6.6,6.6,0,0,0,1374.53,1427.07Zm-11.61-3.56a9.325,9.325,0,0,1-1.74-.64,2.327,2.327,0,0,1-1.38-2.2,2.755,2.755,0,0,1,1.38-2.49,7.341,7.341,0,0,1,1.74-.71v6.04Zm6.03,12.74a4.627,4.627,0,0,1-.87.21v-6.33a10.451,10.451,0,0,1,2.1.85,2.412,2.412,0,0,1,1.23,2.14A3.169,3.169,0,0,1,1368.95,1436.25Z" transform="translate(-1354 -1409)"/>
</svg>
