<svg xmlns="http://www.w3.org/2000/svg" width="40" height="35" viewBox="0 0 40 35">
  <defs>
    <style>
      .cls-1 {
        fill: #fff;
        fill-rule: evenodd;
      }
    </style>
  </defs>
  <path id="icon_support" class="cls-1" d="M1380.01,1666.37c-0.89-11.65-5.71-15.37-14.68-15.37,0,0-15.29,0-15.29,17.44,0,15-5.05,13.72-5.05,13.72s3.59,2.93,13.9,3.83a8.368,8.368,0,0,0,0-3.35c-1.63-1.65-3.92-4.52-3.92-7.5-2.3-.64-2.81-2.18-2.08-3.67a14.475,14.475,0,0,0,5.89-13.24c2.46,9.09,13.84,11.75,16.97,11.91,0,0,3.76,2.18,0,4.68v0.06a0.619,0.619,0,0,0-.16.48,3.128,3.128,0,0,1-.84,2.28,6.711,6.711,0,0,1-4.21,1.33,2.306,2.306,0,0,0-2.13-1.38,2.181,2.181,0,1,0,2.13,2.92,10.663,10.663,0,0,0,3.87-.85,9.137,9.137,0,0,1-3.08,3.14,14.944,14.944,0,0,0,.28,3.09c10.25-.91,13.39-3.89,13.39-3.89S1380.85,1678.01,1380.01,1666.37Z" transform="translate(-1345 -1651)"/>
</svg>
