<?xml version="1.0" encoding="utf-8"?>
<!-- Generator: Adobe Illustrator 19.2.1, SVG Export Plug-In . SVG Version: 6.00 Build 0)  -->
<svg version="1.1" id="Layer_1" xmlns="http://www.w3.org/2000/svg" xmlns:xlink="http://www.w3.org/1999/xlink" x="0px" y="0px"
	 viewBox="0 0 18 14" style="enable-background:new 0 0 18 14;" xml:space="preserve">
<style type="text/css">
	.st0{opacity:0.5;fill:#FFFFFF;enable-background:new    ;}
</style>
<path id="icon_company" class="st0" d="M16.3,2.1h-3.9V1.4C12.4,0.6,11.8,0,11,0H7C6.2,0,5.6,0.6,5.6,1.4v0.7H1.7C0.8,2,0,2.8,0,3.7
	v8.7C0,13.3,0.8,14,1.7,14h14.6c0.9,0,1.7-0.7,1.7-1.6V3.7C18,2.8,17.2,2,16.3,2.1z M6.5,1.4c0-0.2,0.2-0.4,0.5-0.4H11
	c0.2,0,0.5,0.2,0.5,0.4v0.7h-5V1.4z M1.7,3h14.6c0.4,0,0.7,0.3,0.7,0.7v3.4c-1,0.5-2,0.9-3.1,1.1V8c0-0.4-0.3-0.7-0.7-0.7h-0.5
	C12.3,7.3,12,7.6,12,8v0.6c-2,0.3-4,0.3-5.9,0V8c0-0.4-0.3-0.7-0.7-0.7H4.8C4.4,7.3,4.1,7.6,4.1,8v0.2C3,7.9,2,7.6,1,7.1V3.7
	C1,3.3,1.3,3,1.7,3C1.7,3,1.7,3,1.7,3L1.7,3z M13.4,8v1.1c0,0.1-0.1,0.2-0.2,0.1h-0.5c-0.1,0-0.2-0.1-0.2-0.1V8
	c0-0.1,0.1-0.2,0.2-0.1h0.5C13.3,7.8,13.4,7.9,13.4,8z M5.5,8v1.1c0,0.1-0.1,0.2-0.2,0.1H4.8c-0.1,0-0.2-0.1-0.2-0.1V8
	c0-0.1,0.1-0.2,0.2-0.1h0.5C5.4,7.8,5.5,7.9,5.5,8L5.5,8z M16.3,13.1H1.7c-0.4,0-0.7-0.3-0.7-0.7V7.7c1,0.5,2,0.8,3.1,1.1v0.3
	c0,0.4,0.3,0.7,0.7,0.7h0.5C5.7,9.8,6,9.5,6,9.2c1,0.2,2,0.2,3,0.2c1,0,2-0.1,2.9-0.2c0.1,0.4,0.4,0.6,0.7,0.6h0.5
	c0.4,0,0.7-0.3,0.7-0.7V8.8C15,8.5,16,8.2,17.1,7.7v4.7C17,12.8,16.7,13.1,16.3,13.1C16.3,13.1,16.3,13.1,16.3,13.1L16.3,13.1z"/>
</svg>
