<svg id="women" xmlns="http://www.w3.org/2000/svg" width="104" height="119" viewBox="0 0 104 119">
  <defs>
    <style>
      .cls-1, .cls-2, .cls-3 {
        fill: none;
        fill-rule: evenodd;
      }

      .cls-1 {
        stroke: #4a259b;
      }

      .cls-1, .cls-2 {
        stroke-width: 4px;
      }

      .cls-2, .cls-3 {
        stroke: #e01186;
      }

      .cls-3 {
        stroke-linejoin: round;
        stroke-width: 2px;
      }
    </style>
  </defs>
  <path id="Polygon_6" data-name="Polygon 6" class="cls-1" d="M839.992,4352.01l-50-28.75v-57.5l50-28.75,50,28.75v57.5Z" transform="translate(-788 -4235)"/>
  <path id="Polygon_6-2" data-name="Polygon 6" class="cls-2" d="M839.992,4237.01l50,28.75v57.5l-50,28.75-50-28.75v-57.5" transform="translate(-788 -4235)"/>
  <path class="cls-3" d="M857.77,4308.11a26.08,26.08,0,0,0-11.713-6.39,0.75,0.75,0,0,0-.362-0.09h-0.426l1.788,3.77-3.727,6.6h13.914a0.747,0.747,0,0,0,.756-0.74v-2.62A0.731,0.731,0,0,0,857.77,4308.11Zm-23.031-6.48h-0.33a1.02,1.02,0,0,0-.173.02,26.045,26.045,0,0,0-12.008,6.46,0.731,0.731,0,0,0-.23.53v2.62a0.748,0.748,0,0,0,.757.74h13.821l-3.659-6.52Zm5.018-6.19a1.117,1.117,0,0,0-.98.57,7.091,7.091,0,0,1-5.869-4.2h-0.024a1.411,1.411,0,0,1-1.391-1.43,1.438,1.438,0,0,1,.824-1.31,39.978,39.978,0,0,0,3.145-8.79s0.981,7.45,12.231,8.75c0,0.01-.007.03-0.011,0.04a1.45,1.45,0,0,1,.823,1.31,1.411,1.411,0,0,1-1.391,1.43H847.09a8.967,8.967,0,0,1-2.734,5.69v1.81a19.785,19.785,0,0,0,9.122-2.64c-5.108-3.03-.722-13.23-6.355-18s-7.124-1.68-7.124-1.68-1.49-3.09-7.123,1.68-1.247,14.97-6.355,18a19.829,19.829,0,0,0,9.061,2.64v-1.87a8.934,8.934,0,0,1-1.977-2.9,7.908,7.908,0,0,0,5.119,2.41,1.124,1.124,0,0,0,1.033.67A1.09,1.09,0,1,0,839.757,4295.44Z" transform="translate(-788 -4235)"/>
</svg>
