<svg xmlns="http://www.w3.org/2000/svg" width="30" height="44" viewBox="0 0 30 44">
  <defs>
    <style>
      .cls-1 {
        fill: #e01186;
        fill-rule: evenodd;
      }
    </style>
  </defs>
  <path id="pin" class="cls-1" d="M29.006,3998a14.933,14.933,0,0,0-15.013,14.85c0,4.2,4.133,11.71,4.133,11.71l10.326,17.45,10.774-17.24s4.786-7.18,4.786-11.92A14.93,14.93,0,0,0,29.006,3998Zm-5.447,5.54a4.089,4.089,0,0,1,2.453-1.25,6.3,6.3,0,0,1,4.967,1.42,9.857,9.857,0,0,1,.986.88,9.1,9.1,0,0,0-2.052-1.46,5.867,5.867,0,0,0-4.584-.45,3.384,3.384,0,0,0-2.027,1.67,2.7,2.7,0,0,0,.777,3.51,8.063,8.063,0,0,0,2.088,1.02,15.412,15.412,0,0,1,2.274.91,1.965,1.965,0,0,1,.917.92,1.4,1.4,0,0,1,.037,1.1,3.978,3.978,0,0,1-1.438,1.78c0.231-.25.512-0.5,0.737-0.79a4.073,4.073,0,0,0,.532-0.89,1.374,1.374,0,0,0-.554-1.77,7.1,7.1,0,0,0-1.529-.7c-0.736-.26-1.476-0.51-2.2-0.8a4.153,4.153,0,0,1-1.317-.82A3.051,3.051,0,0,1,23.56,4003.54Zm6.28,7.4a1.317,1.317,0,0,0-.369-0.72,4.282,4.282,0,0,0-1.529-.96c-0.644-.28-1.3-0.53-1.933-0.83a3.957,3.957,0,0,1-1.313-1.05,2.063,2.063,0,0,1,.4-3.23,3.914,3.914,0,0,1,2.43-.74,3.978,3.978,0,0,1,2.124.6,1.238,1.238,0,0,1,.148.11,4.922,4.922,0,0,0-1.773-.3,3.044,3.044,0,0,0-1.984.69,1.46,1.46,0,0,0-.161,2.23,4.136,4.136,0,0,0,1.428,1c0.687,0.32,1.381.63,2.056,0.97a3.284,3.284,0,0,1,1.229,1.05,1.792,1.792,0,0,1,.167,1.9,2.345,2.345,0,0,1-.27.46,6.331,6.331,0,0,1-2.543,1.83l0.142-.12a6.907,6.907,0,0,0,1.4-1.56A1.9,1.9,0,0,0,29.839,4010.94Zm4.175,14.1-3.3,6.12a0.549,0.549,0,0,1-.439.38H27.6a0.521,0.521,0,0,1-.373-0.38l-3.168-5.94a37.321,37.321,0,0,1-2.675-5.49c0-.69.024-1.74,0.073-3.14s0.073-2.46.073-3.15c0-.33.107-0.49,0.319-0.49,0.169,0,.415.01,0.739,0.04s0.57,0.04.739,0.04,0.4-.02.732-0.04,0.572-.04.732-0.04a0.248,0.248,0,0,1,.306.25c0,0.71-.047,1.79-0.14,3.23s-0.14,2.53-.14,3.25q0,0.9,4.126,8.03,1.092-1.845,2.369-4.25a17.459,17.459,0,0,0,1.85-4.08q0-1.035-.066-3.09c-0.045-1.37-.067-2.4-0.067-3.08a0.243,0.243,0,0,1,.293-0.26c0.168,0,.417.01,0.745,0.04s0.572,0.04.732,0.04,0.4-.02.725-0.04,0.566-.04.726-0.04a0.287,0.287,0,0,1,.333.25,2.074,2.074,0,0,0-.013.5q0,0.99.026,2.94t0.027,2.94Q36.623,4020.135,34.014,4025.04Z" transform="translate(-14 -3998)"/>
</svg>
