<svg xmlns="http://www.w3.org/2000/svg" width="18" height="20" viewBox="0 0 18 20">
  <defs>
    <style>
      .cls-1 {
        fill: #fff;
        fill-rule: evenodd;
      }
    </style>
  </defs>
  <path id="icon_basket" class="cls-1" d="M1515.89,132.63a1.185,1.185,0,1,1-1.18,1.185A1.184,1.184,0,0,1,1515.89,132.63Zm-9.92,0a1.185,1.185,0,1,1-1.18,1.185A1.184,1.184,0,0,1,1505.97,132.63Zm11.35-13.429-12.47-1.681-0.79-1.7a0.781,0.781,0,0,0-.6-0.448L1500.9,115a0.789,0.789,0,0,0-.22,1.563l2.13,0.305,4.56,9.8-2.47,3.823a0.782,0.782,0,0,0,.66,1.218h10.72a0.789,0.789,0,1,0,0-1.578H1507l1.72-2.648,8.56-.75a0.788,0.788,0,0,0,.72-0.786v-5.965A0.786,0.786,0,0,0,1517.32,119.2Zm-0.9,2.893h-2.78v-1.8l2.78,0.375v1.422Zm-6.46,0V119.8l2.89,0.39v1.9h-2.89Zm2.89,0.788v2.655l-2.89.253v-2.908h2.89Zm-3.67-3.187v2.4h-2.2l-1.34-2.874Zm-0.74,5.546-1.09-2.359h1.83v2.978l-0.43.036Zm5.2,0.228v-2.587h2.78v2.342Z" transform="translate(-1500 -115)"/>
</svg>
