<svg xmlns="http://www.w3.org/2000/svg" width="30" height="30" viewBox="0 0 30 30">
  <defs>
    <style>
      .cls-1 {
        fill: #fff;
        fill-rule: evenodd;
      }
    </style>
  </defs>
  <path id="icon_city" class="cls-1" d="M1005.37,3390H983.625a0.589,0.589,0,0,1-.625-0.62v-15a0.615,0.615,0,0,1,.375-0.57l14.25-6.44a0.553,0.553,0,0,1,.437,0l7.5,2.63a0.6,0.6,0,0,1,.44.56v18.82A0.591,0.591,0,0,1,1005.37,3390Zm-21.12-1.25h20.5V3371l-6.875-2.37-13.625,6.12v14Zm13.563,1.25a0.59,0.59,0,0,1-.626-0.62v-20.94a0.625,0.625,0,1,1,1.25,0v20.94A0.588,0.588,0,0,1,997.813,3390Zm-12-12.5a0.754,0.754,0,0,1-.625-0.44,0.631,0.631,0,0,1,.437-0.81l8.875-2.75a0.653,0.653,0,0,1,.375,1.25L986,3377.5h-0.187Zm0,3.31a0.6,0.6,0,0,1-.625-0.5,0.632,0.632,0,0,1,.5-0.75l8.876-1.87a0.631,0.631,0,0,1,.75.5,0.639,0.639,0,0,1-.5.75l-8.874,1.87h-0.125Zm0,3.25a0.664,0.664,0,0,1-.625-0.56,0.622,0.622,0,0,1,.562-0.69l8.875-.94a0.633,0.633,0,0,1,.125,1.26l-8.875.93h-0.062Zm8.874,3.32h-8.874a0.63,0.63,0,0,1,0-1.26h8.874A0.63,0.63,0,0,1,994.687,3387.38Zm17.683,2.62h-9.56a0.625,0.625,0,0,1,0-1.25h8.94v-24.69l-8.5-2.75-8.125,3.63v4.19a0.625,0.625,0,0,1-1.25,0v-4.63a0.542,0.542,0,0,1,.375-0.56l8.69-3.88a1.068,1.068,0,0,1,.43-0.06l9.19,3a0.743,0.743,0,0,1,.44.63v25.75A0.591,0.591,0,0,1,1012.37,3390Zm-3.75-21.44a0.588,0.588,0,0,1-.62-0.62v-2.44a0.625,0.625,0,0,1,1.25,0v2.44A0.591,0.591,0,0,1,1008.62,3368.56Zm0,4.38a0.591,0.591,0,0,1-.62-0.63v-2.44a0.625,0.625,0,0,1,1.25,0v2.44A0.593,0.593,0,0,1,1008.62,3372.94Zm0,4.43a0.588,0.588,0,0,1-.62-0.62v-2.5a0.625,0.625,0,1,1,1.25,0v2.5A0.591,0.591,0,0,1,1008.62,3377.37Zm0,4.38a0.588,0.588,0,0,1-.62-0.62v-2.44a0.625,0.625,0,1,1,1.25,0v2.44A0.591,0.591,0,0,1,1008.62,3381.75Zm0,4.37a0.588,0.588,0,0,1-.62-0.62v-2.44a0.625,0.625,0,0,1,1.25,0v2.44A0.591,0.591,0,0,1,1008.62,3386.12Z" transform="translate(-983 -3360)"/>
</svg>
