<svg xmlns="http://www.w3.org/2000/svg" width="20" height="30" viewBox="0 0 20 30">
  <defs>
    <style>
      .cls-1 {
        fill: #fff;
        fill-rule: evenodd;
      }
    </style>
  </defs>
  <path id="icon_sale" class="cls-1" d="M1324.59,3360H1307.4a1.387,1.387,0,0,0-1.4,1.41v27.18a1.4,1.4,0,0,0,1.4,1.42h17.19a1.43,1.43,0,0,0,1.41-1.42v-27.18A1.4,1.4,0,0,0,1324.59,3360Zm-17.55,28.59v-27.18a0.313,0.313,0,0,1,.33-0.32h11.05v27.83h-11.05A0.321,0.321,0,0,1,1307.04,3388.59Zm12.47-14.82v-0.73h2.92v0.73h-2.92Zm0-1.82v-0.73h2.92v0.73h-2.92Zm2.92,2.91v0.72h-2.92v-0.72h2.92Zm0-4.73h-2.92v-9.04h2.92v9.04Zm-2.92,6.54h2.92v12.25h-2.92v-12.25Zm4-15.58h1.05a0.3,0.3,0,0,1,.32.32v27.18a0.313,0.313,0,0,1-.32.33h-1.05v-27.83Zm-3.53,17.19v2.78h2.01v-2.78h-2.01Z" transform="translate(-1306 -3360)"/>
</svg>
