<svg xmlns="http://www.w3.org/2000/svg" width="16.03" height="16" viewBox="0 0 16.03 16">
  <defs>
    <style>
      .cls-1 {
        fill: #fff;
        fill-rule: evenodd;
      }
    </style>
  </defs>
  <path id="icon_phone" class="cls-1" d="M1075.66,4915.66l-2.48-2.48a1.28,1.28,0,0,0-1.81.04l-1.25,1.24c-0.08-.04-0.16-0.08-0.25-0.13a12.711,12.711,0,0,1-2.99-2.17,12.552,12.552,0,0,1-2.18-3.01,2.6,2.6,0,0,0-.13-0.24l0.84-.84,0.41-.41a1.292,1.292,0,0,0,.03-1.82l-2.47-2.48a1.283,1.283,0,0,0-1.82.03l-0.7.7,0.02,0.02a4.058,4.058,0,0,0-.57,1.02,4,4,0,0,0-.26,1.03c-0.33,2.71.91,5.19,4.27,8.55,4.64,4.65,8.38,4.3,8.54,4.28a4.186,4.186,0,0,0,1.03-.25,3.857,3.857,0,0,0,1.01-.58l0.02,0.02,0.71-.7a1.3,1.3,0,0,0,.03-1.82h0Zm0,0" transform="translate(-1060 -4903)"/>
</svg>
