<svg xmlns="http://www.w3.org/2000/svg" width="36" height="30" viewBox="0 0 36 30">
  <defs>
    <style>
      .cls-1 {
        fill: #fff;
        fill-rule: evenodd;
      }
    </style>
  </defs>
  <path id="icon_king" class="cls-1" d="M362,3368.8l5.879,9.34,0.607,0.97,0.851-.62,5.567-4.1-2.235,14.22H351.334l-2.235-14.22,5.566,4.1,0.849,0.62,0.608-.97,5.88-9.34m0-2.27-6.764,10.76-7.719-5.68L350.41,3390h23.184l2.891-18.39-7.72,5.68L362,3366.53h0Zm-11.838,18.24h23.674v1.39H350.164v-1.39Zm27.283-18.24a1.545,1.545,0,1,1-1.543,1.55,1.551,1.551,0,0,1,1.543-1.55m0-1.01a2.555,2.555,0,1,0,2.562,2.56,2.557,2.557,0,0,0-2.562-2.56h0Zm-30.889,1.01a1.545,1.545,0,1,1-1.543,1.55,1.55,1.55,0,0,1,1.543-1.55m0-1.01a2.555,2.555,0,1,0,2.562,2.56,2.557,2.557,0,0,0-2.562-2.56h0ZM362,3361.01a1.54,1.54,0,1,1-1.543,1.54,1.542,1.542,0,0,1,1.543-1.54m0-1.02a2.56,2.56,0,1,0,2.562,2.56,2.564,2.564,0,0,0-2.562-2.56h0Z" transform="translate(-344 -3360)"/>
</svg>
