<svg id="money" xmlns="http://www.w3.org/2000/svg" width="104" height="119" viewBox="0 0 104 119">
  <defs>
    <style>
      .cls-1, .cls-2, .cls-3 {
        fill: none;
        fill-rule: evenodd;
      }

      .cls-1 {
        stroke: #4a259b;
      }

      .cls-1, .cls-2 {
        stroke-width: 4px;
      }

      .cls-2 {
        stroke: #e01186;
      }

      .cls-3 {
        stroke: #e80780;
        stroke-width: 2px;
      }
    </style>
  </defs>
  <path id="Polygon_6" data-name="Polygon 6" class="cls-1" d="M1307.99,4059.01l-50-28.75v-57.5l50-28.75,50,28.75v57.5Z" transform="translate(-1256 -3942)"/>
  <path id="Polygon_6-2" data-name="Polygon 6" class="cls-2" d="M1307.99,3944.01l50,28.75v57.5l-50,28.75" transform="translate(-1256 -3942)"/>
  <path class="cls-3" d="M1316.27,3995.98v-2.12a0.448,0.448,0,0,0,0-.2v-0.3h-0.04c-0.22-1.75-1.68-3.35-4.16-4.52a25.059,25.059,0,0,0-18.85,0c-2.57,1.2-4.05,2.86-4.18,4.7l-0.03.1a1.343,1.343,0,0,0-.01.19v16.05c0,1.92,1.49,3.68,4.2,4.98a23.042,23.042,0,0,0,9.45,1.83,27.687,27.687,0,0,0,3.78-.26A12.634,12.634,0,1,0,1316.27,3995.98Zm-13.62,4.67a27.061,27.061,0,0,0,3.93-.27,12.616,12.616,0,0,0-2.31,3.95c-0.59.04-1.13,0.06-1.64,0.06a20.964,20.964,0,0,1-8.73-1.69c-2.09-.98-3.29-2.28-3.29-3.62v-1.99a9.79,9.79,0,0,0,2.61,1.73A22.843,22.843,0,0,0,1302.65,4000.65Zm-0.02,5.3c0.4,0,.79-0.01,1.18-0.03a13.052,13.052,0,0,0-.26,2.58,14.2,14.2,0,0,0,.08,1.51c-0.32.02-.66,0.03-1,0.03a21.391,21.391,0,0,1-8.73-1.7c-2.09-.98-3.29-2.29-3.29-3.61v-2.31a10.022,10.022,0,0,0,2.59,1.7A22.71,22.71,0,0,0,1302.63,4005.95Zm12.05-12.12a3.4,3.4,0,0,1-1.62,2.55,13.07,13.07,0,0,0-4.12,1.89,24.306,24.306,0,0,1-6.29.82,21.183,21.183,0,0,1-8.75-1.7c-1.96-.92-3.17-2.13-3.29-3.29v-0.27a0.178,0.178,0,0,0-.02-0.11h0c0.06-1.23,1.27-2.49,3.31-3.46a23.393,23.393,0,0,1,17.46,0c2.06,0.98,3.27,2.25,3.32,3.49l0.31-.01Zm-24.07,14.21a10.036,10.036,0,0,0,2.59,1.71,22.679,22.679,0,0,0,9.43,1.84c0.44,0,.86,0,1.28-0.02a12.118,12.118,0,0,0,1.48,3.41,23.631,23.631,0,0,1-2.74.16,21.351,21.351,0,0,1-8.75-1.69c-2.09-.99-3.29-2.28-3.29-3.57v-1.84Zm36.79,0.46a11.131,11.131,0,1,1-11.14-10.96A11.059,11.059,0,0,1,1327.4,4008.5Z" transform="translate(-1256 -3942)"/>
</svg>
