<svg xmlns="http://www.w3.org/2000/svg" width="18" height="18" viewBox="0 0 18 18">
  <defs>
    <style>
      .cls-1 {
        fill: #fff;
        fill-rule: evenodd;
      }
    </style>
  </defs>
  <path id="icon_phone" class="cls-1" d="M47.586,125.9a0.924,0.924,0,1,1-.924-0.941,0.933,0.933,0,0,1,.924.941h0Zm3.751-.941a0.941,0.941,0,1,0,.924.941,0.933,0.933,0,0,0-.924-0.941h0ZM58,125.376v1.789a1.612,1.612,0,0,1-1.6,1.627H55.245C54.1,132.039,51.165,134,49,134s-5.1-1.961-6.245-5.208H41.6a1.612,1.612,0,0,1-1.6-1.627v-1.789a1.629,1.629,0,0,1,.837-1.43A7.931,7.931,0,0,1,43,118.05,8.318,8.318,0,0,1,49,116a8.317,8.317,0,0,1,6,2.05,7.931,7.931,0,0,1,2.163,5.9,1.629,1.629,0,0,1,.837,1.43h0Zm-3.38.53c0-.418-0.021-0.811-0.052-1.192a6.54,6.54,0,0,0-3.618-1.348,2.425,2.425,0,0,1,.509.988c-0.995-.8-2.947-0.608-4.423-2.393-0.085-.1-0.158-0.195-0.221-0.283l0,0h0c-0.263-.362-0.352-0.577-0.357-0.339a3.9,3.9,0,0,1-3.058,3.879c-0.01.225-.018,0.453-0.018,0.691a7.492,7.492,0,0,0,.376,2.371,4.971,4.971,0,0,0,3.664,1.485,1.656,1.656,0,0,1,1.416-.665,1.181,1.181,0,1,1,0,2.243,1.622,1.622,0,0,1-1.445-.716,7.54,7.54,0,0,1-2.8-.642A6.113,6.113,0,0,0,49,132.861c1.907,0,5.62-2.455,5.62-6.955h0Zm1.581-2.157c-0.1-4.431-2.585-6.774-7.2-6.774s-7.1,2.343-7.2,6.774h0.614a7.9,7.9,0,0,1,1.42-3.667A6.119,6.119,0,0,1,49,117.814a6.119,6.119,0,0,1,5.167,2.268,7.9,7.9,0,0,1,1.42,3.667H56.2Zm0,0" transform="translate(-40 -116)"/>
</svg>
