<svg xmlns="http://www.w3.org/2000/svg" width="18" height="15" viewBox="0 0 18 15">
  <defs>
    <style>
      .cls-1 {
        fill: #fff;
        fill-rule: evenodd;
        opacity: 0.5;
      }
    </style>
  </defs>
  <path id="icon_gallery" class="cls-1" d="M621.514,15.24h-1.656V13.406A0.451,0.451,0,0,0,619.373,13h-14.89a0.451,0.451,0,0,0-.485.406V25.8a0.451,0.451,0,0,0,.485.406h2.192v1.386a0.45,0.45,0,0,0,.485.406h14.354A0.45,0.45,0,0,0,622,27.594V15.646A0.451,0.451,0,0,0,621.514,15.24Zm-16.546-1.428h13.92V25.4h-13.92V13.812Zm16.061,13.375H607.645v-0.98h11.728a0.451,0.451,0,0,0,.485-0.406V16.053h1.171V27.188Zm-3.313-12.4H606.14v7.861h11.576V14.793Zm-0.97,7.049H607.11V15.6h9.636v6.237Z" transform="translate(-604 -13)"/>
</svg>
