<svg id="king" xmlns="http://www.w3.org/2000/svg" width="104" height="119" viewBox="0 0 104 119">
  <defs>
    <style>
      .cls-1, .cls-2, .cls-3 {
        fill: none;
        fill-rule: evenodd;
      }

      .cls-1 {
        stroke: #4a259b;
      }

      .cls-1, .cls-2 {
        stroke-width: 4px;
      }

      .cls-2, .cls-3 {
        stroke: #e01186;
      }

      .cls-3 {
        stroke-linejoin: round;
        stroke-width: 2px;
      }
    </style>
  </defs>
  <path id="Polygon_6" data-name="Polygon 6" class="cls-1" d="M677.992,4059.01l-50-28.75v-57.5l50-28.75,50,28.75v57.5Z" transform="translate(-626 -3942)"/>
  <path id="Polygon_6-2" data-name="Polygon 6" class="cls-2" d="M677.992,3944.01l50,28.75" transform="translate(-626 -3942)"/>
  <path class="cls-3" d="M694.5,3992.79a2.608,2.608,0,0,0-2.494,2.71,2.736,2.736,0,0,0,.473,1.59l-3.267,2.58a4.545,4.545,0,0,1-7.008-1.92l-3.009-6.6a2.773,2.773,0,0,0,1.376-2.44,2.5,2.5,0,1,0-4.987,0,2.773,2.773,0,0,0,1.376,2.44l-3.01,6.6a4.572,4.572,0,0,1-7.007,1.92l-3.354-2.62a3.066,3.066,0,0,0,.43-1.55,2.607,2.607,0,0,0-2.493-2.71,2.723,2.723,0,0,0-.043,5.43,3.226,3.226,0,0,0,.946-0.19l5.717,16.06h19.819l5.718-16.01a2.4,2.4,0,0,0,.817.14A2.725,2.725,0,0,0,694.5,3992.79Zm-26.354,24.95a1.218,1.218,0,0,0,1.161,1.27h17.454a1.218,1.218,0,0,0,1.161-1.27v-1.78H668.15v1.78Z" transform="translate(-626 -3942)"/>
</svg>
