<svg id="tools" xmlns="http://www.w3.org/2000/svg" width="104" height="119" viewBox="0 0 104 119">
  <defs>
    <style>
      .cls-1 {
        fill: none;
        stroke: #4a259b;
        stroke-width: 4px;
      }

      .cls-1, .cls-2 {
        fill-rule: evenodd;
      }

      .cls-2 {
        fill: #e01186;
      }
    </style>
  </defs>
  <path id="Polygon_6" data-name="Polygon 6" class="cls-1" d="M352.992,4059.01l-50-28.75v-57.5l50-28.75,50,28.75v57.5Z" transform="translate(-301 -3942)"/>
  <path id="icon_tools" class="cls-2" d="M357.859,4007.84l-15.518-15.15-0.226.22a1.2,1.2,0,0,1-1.581-.02l-3.934-4.2a1.1,1.1,0,0,1-.335-0.9,0.839,0.839,0,0,1,.336-0.62l1.652-1.62a1.087,1.087,0,0,1,1.553-.01l4.275,3.82a0.859,0.859,0,0,1,.371.81,1.085,1.085,0,0,1-.318.76l-0.225.23,15.6,15.14,2.154-2.11a1.228,1.228,0,0,1,1.659,0l8.445,8.25a4.057,4.057,0,0,1,0,5.83l-1.56,1.52a4.291,4.291,0,0,1-5.973,0l-8.446-8.24a1.083,1.083,0,0,1-.011-1.52Zm10.593,10.33,1.561-1.52a1.89,1.89,0,0,0,0-2.68l-4.9-4.71-4.225,4.21,4.819,4.7A2,2,0,0,0,368.452,4018.17Zm-10.4-7.4,1.168,1.09,4.23-4.21-1.1-1.07Zm-19.115-22.83,2.409,2.57,0.332-.33-2.627-2.35Zm23.077,10.18-4.478,4.38a1.145,1.145,0,0,1-1.567,0,1.128,1.128,0,0,1,0-1.62l5.049-4.93a1.175,1.175,0,0,1,1.242-.27,5.437,5.437,0,0,0,5.917-.81,4.614,4.614,0,0,0,1.334-3.98l-2.705,2.64a1.214,1.214,0,0,1-1.215.29l-3.078-1.1a0.94,0.94,0,0,1-.614-0.66l-1.177-3a1.139,1.139,0,0,1,.3-1.18l2.7-2.63a5.244,5.244,0,0,0-4.158,1.29,5.155,5.155,0,0,0-.807,5.82,0.926,0.926,0,0,1-.294,1.17l-5.049,4.93a1.188,1.188,0,0,1-1.659,0,1.128,1.128,0,0,1,0-1.62l4.483-4.37a7.4,7.4,0,0,1,1.667-7.46,7.753,7.753,0,0,1,8.425-1.33,1.737,1.737,0,0,1,.664.73l0.048,0.1v0.1a1.255,1.255,0,0,1-.318.95l-3.558,3.47,0.654,1.78,1.822,0.64,3.553-3.39a1.477,1.477,0,0,1,.968-0.4,0.971,0.971,0,0,1,.905.69,7.32,7.32,0,0,1-1.323,8.24A7.774,7.774,0,0,1,362.014,3998.12Zm-26.97,9.29a7.555,7.555,0,0,1,7.637-1.54l5.578-5.44a1.187,1.187,0,0,1,1.658,0,1.128,1.128,0,0,1,0,1.62l-6.15,6a1.176,1.176,0,0,1-1.243.27,5.435,5.435,0,0,0-5.916.81,4.709,4.709,0,0,0-1.33,4.06l2.7-2.64a1.192,1.192,0,0,1,1.2-.28l3.088,1.01a0.935,0.935,0,0,1,.616.66l1.084,2.91a1.135,1.135,0,0,1-.3,1.18l-2.7,2.63a5.243,5.243,0,0,0,4.159-1.29,5.157,5.157,0,0,0,.807-5.82,0.938,0.938,0,0,1,.294-1.17l6.15-6.01a1.188,1.188,0,0,1,1.659,0,1.128,1.128,0,0,1,0,1.62l-5.578,5.45a6.948,6.948,0,0,1-6.679,9.47,8.128,8.128,0,0,1-3.326-.68,1.017,1.017,0,0,1-.622-0.84,1.241,1.241,0,0,1,.319-0.95l3.557-3.47-0.654-1.78-1.818-.64-3.558,3.48a1.046,1.046,0,0,1-1.049.3,1.085,1.085,0,0,1-.792-0.61A6.994,6.994,0,0,1,335.044,4007.41Z" transform="translate(-301 -3942)"/>
</svg>
