<svg xmlns="http://www.w3.org/2000/svg" width="34.97" height="35" viewBox="0 0 34.97 35">
  <defs>
    <style>
      .cls-1 {
        fill: #fff;
        fill-rule: evenodd;
      }
    </style>
  </defs>
  <path id="icon_tools" class="cls-1" d="M1350.96,1216.41a3.277,3.277,0,0,0,4.64,4.63l10.76-10.76-4.64-4.64Zm26.9-19.95,4.68-2.43,2.46-4.74-2.29-2.29-4.74,2.46-2.43,4.68-5.7,5.71,2.31,2.31Zm1.02,12.44-0.44-.05a6.486,6.486,0,0,0-2.26.43l-13.46-13.46a6.53,6.53,0,0,0,.43-2.26l-0.04-.45a6.489,6.489,0,0,0-9.33-5.45l4.36,4.35a2.053,2.053,0,0,1,.49.79,2.185,2.185,0,0,1-3.58,2.3l-4.36-4.35a6.447,6.447,0,0,0-.65,2.81,6.531,6.531,0,0,0,6.11,6.51l0.44,0.04a6.58,6.58,0,0,0,2.27-.42l13.45,13.45a6.58,6.58,0,0,0-.42,2.27l0.05,0.44a6.472,6.472,0,0,0,9.31,5.46l-4.35-4.35a2.208,2.208,0,0,1-.5-0.79,2.18,2.18,0,0,1,2.04-2.94,2.277,2.277,0,0,1,.77.14,2.122,2.122,0,0,1,.78.5l4.35,4.35a6.349,6.349,0,0,0,.66-2.81A6.539,6.539,0,0,0,1378.88,1208.9Z" transform="translate(-1350.03 -1187)"/>
</svg>
