<svg xmlns="http://www.w3.org/2000/svg" width="18" height="25" viewBox="0 0 18 25">
  <defs>
    <style>
      .cls-1 {
        fill: #e01186;
        fill-rule: evenodd;
      }
    </style>
  </defs>
  <path id="icon_pdf" class="cls-1" d="M1218.89,478.374a2.834,2.834,0,0,0-.62.054V482.4a2.522,2.522,0,0,0,.47.027,1.872,1.872,0,0,0,2.03-2.127A1.729,1.729,0,0,0,1218.89,478.374Zm-5.24-.018a2.2,2.2,0,0,0-.56.054V480.2a1.957,1.957,0,0,0,.45.036,1.007,1.007,0,0,0,1.17-.991A0.9,0.9,0,0,0,1213.65,478.356ZM1222.62,468H1210v25h18V475.415l-6.39-4.474Zm-7.12,12.655a2.778,2.778,0,0,1-1.95.64,3.107,3.107,0,0,1-.46-0.028v2.173h-1.35v-5.994a11.069,11.069,0,0,1,1.84-.126,2.855,2.855,0,0,1,1.83.486,1.8,1.8,0,0,1,.64,1.406A1.98,1.98,0,0,1,1215.5,480.655Zm7.6-3.29h3.67v1.126h-2.31v1.388h2.16V481h-2.16v2.443h-1.36v-6.075h0Zm-0.89,2.893a3.093,3.093,0,0,1-.99,2.461,4.284,4.284,0,0,1-2.77.784,11.862,11.862,0,0,1-1.54-.09v-5.967a11.994,11.994,0,0,1,1.83-.126,3.834,3.834,0,0,1,2.46.649A2.7,2.7,0,0,1,1222.21,480.258ZM1223.88,468l-0.82,2.383,4.94,3.455Z" transform="translate(-1210 -468)"/>
</svg>
