<svg id="like" xmlns="http://www.w3.org/2000/svg" width="104" height="119" viewBox="0 0 104 119">
  <defs>
    <style>
      .cls-1, .cls-2, .cls-3 {
        fill: none;
        fill-rule: evenodd;
      }

      .cls-1 {
        stroke: #4a259b;
      }

      .cls-1, .cls-2 {
        stroke-width: 4px;
      }

      .cls-2, .cls-3 {
        stroke: #e01186;
      }

      .cls-3 {
        stroke-linejoin: round;
        stroke-width: 2px;
      }
    </style>
  </defs>
  <path id="Polygon_6" data-name="Polygon 6" class="cls-1" d="M1002.99,4059.01L953,4030.26v-57.5l50-28.75,50,28.75v57.5Z" transform="translate(-951 -3942)"/>
  <path id="Polygon_6-2" data-name="Polygon 6" class="cls-2" d="M1002.99,3944.01l50,28.75v57.5" transform="translate(-951 -3942)"/>
  <path class="cls-3" d="M1019.51,4003.85a1.9,1.9,0,0,1-.26-1.3c0.09-.28.16-0.54,0.23-0.79a6.244,6.244,0,0,0,.41-2.09,2.285,2.285,0,0,0-2.4-2.39h-7.78a2.519,2.519,0,0,1-2.36-2.54c0-1.32,1.68-4.15,1.82-7.33,0.22-4.9-4.66-4.39-4.66-4.39v0.01a1.251,1.251,0,0,0-.74.89v3.05a9.945,9.945,0,0,1-2.1,5.34,36.57,36.57,0,0,1-3.229,4.2c-0.974.77-2.033,1.82-3.331,1.82v17.58a12.951,12.951,0,0,0,5.41,1.1h12.1c0.17,0,4.68.17,4.1-3.72-0.18-1.18,2.94-2.06,2.25-4.17C1018.15,4006.64,1021.08,4006.57,1019.51,4003.85Zm-33.5-6.83v19.75h7.573v-19.75h-7.573Zm3.786,18.08a0.875,0.875,0,1,1,.862-0.88A0.868,0.868,0,0,1,989.791,4015.1Z" transform="translate(-951 -3942)"/>
</svg>
