<svg xmlns="http://www.w3.org/2000/svg" width="51" height="51" viewBox="0 0 51 51">
  <defs>
    <style>
      .cls-1 {
        opacity: 0.8;
      }

      .cls-2 {
        fill: none;
        stroke: #e10b87;
        stroke-width: 1px;
      }

      .cls-3 {
        fill: #e10b87;
        fill-rule: evenodd;
      }
    </style>
  </defs>
  <g id="icon_360" class="cls-1">
    <rect class="cls-2" x="0.5" y="0.5" width="50" height="50" rx="25" ry="25"/>
    <path class="cls-3" d="M309.978,470.228c-9.536,0-16.983,1.193-16.983,2.634,0,1.645,6.649,3.085,15.426,3.209V478l4.407-2.879-4.407-2.634v1.769c-7.257-.082-12.956-0.576-12.956-1.4,0-1.194,6.5-2.181,14.513-2.181s14.514,0.987,14.514,2.181c0,0.74-4.749,1.234-11.094,1.4v1.811c7.864-.288,13.6-1.646,13.6-3.168C326.961,471.421,319.515,470.228,309.978,470.228Zm-9.928-7.894a3,3,0,0,1,.771-1.711,2.683,2.683,0,0,1,1.973-.715,2.891,2.891,0,0,1,2.042.669,2.035,2.035,0,0,1,.6,1.542,1.606,1.606,0,0,1-.316,1.031,1.431,1.431,0,0,1-.583.476,1.922,1.922,0,0,1,.887.612,2.088,2.088,0,0,1,.362,1.19,2.322,2.322,0,0,1-.782,1.724,2.908,2.908,0,0,1-2.055.657,3.064,3.064,0,0,1-2.276-.782,3.15,3.15,0,0,1-.864-1.871h1.8a1.418,1.418,0,0,0,.373.85,1.233,1.233,0,0,0,.864.307,1.175,1.175,0,0,0,.782-0.261,1.069,1.069,0,0,0,.315-0.771,0.925,0.925,0,0,0-.338-0.725,1.6,1.6,0,0,0-.957-0.238H302.5v-1.2h0.105a1.385,1.385,0,0,0,.782-0.215,0.877,0.877,0,0,0,.292-0.681,0.815,0.815,0,0,0-.257-0.612,1.011,1.011,0,0,0-.666-0.226,1,1,0,0,0-.7.249,1.185,1.185,0,0,0-.28.7H300.05Zm11.765-2.244-2.054,2.482a2.428,2.428,0,0,1,.817-0.125,2.62,2.62,0,0,1,1.926.726,2.384,2.384,0,0,1,.677,1.746,2.985,2.985,0,0,1-.735,2.028,3.192,3.192,0,0,1-2.393.85,3.282,3.282,0,0,1-2.521-.884,2.51,2.51,0,0,1-.677-1.836,4.578,4.578,0,0,1,1.249-2.9l1.786-2.278Zm-0.887,5.939a1.3,1.3,0,0,0,.409-1,1.177,1.177,0,0,0-.409-0.93,1.392,1.392,0,0,0-.933-0.317,1.317,1.317,0,0,0-.945.329,1.256,1.256,0,0,0-.4.963,1.2,1.2,0,0,0,.4.941,1.383,1.383,0,0,0,.945.351A1.36,1.36,0,0,0,310.928,466.029Zm8.311,0.986a2.944,2.944,0,0,1-2.09.782,2.891,2.891,0,0,1-2.065-.782,5.037,5.037,0,0,1,0-6.336,2.9,2.9,0,0,1,2.065-.782,2.944,2.944,0,0,1,2.09.782A5.037,5.037,0,0,1,319.239,467.015Zm-2.8-5.338a3.216,3.216,0,0,0-.654,2.164,3.258,3.258,0,0,0,.654,2.177,1.066,1.066,0,0,0,1.447,0,3.263,3.263,0,0,0,.654-2.177,3.222,3.222,0,0,0-.654-2.164A1.064,1.064,0,0,0,316.438,461.677Zm6.414-.267a1.7,1.7,0,1,1,1.751-1.7A1.729,1.729,0,0,1,322.852,461.41Zm0-2.579a0.879,0.879,0,1,0,.9.878A0.892,0.892,0,0,0,322.852,458.831Z" transform="translate(-284.5 -442.5)"/>
  </g>
</svg>
