<svg xmlns="http://www.w3.org/2000/svg" width="140.062" height="140.06" viewBox="0 0 140.062 140.06">
  <defs>
    <style>
      .cls-1 {
        fill: #fafafa;
        fill-rule: evenodd;
      }
    </style>
  </defs>
  <path id="icon_play" class="cls-1" d="M870.628,1152a70.014,70.014,0,1,0-25.622,95.64A69.993,69.993,0,0,0,870.628,1152h0ZM838,1235.51a56.01,56.01,0,1,1,20.5-76.52,56.025,56.025,0,0,1-20.5,76.52h0Zm-2.8-51.36-36.667-21.38c-3.334-1.95-6.034-.39-6.017,3.47l0.188,42.45c0.018,3.88,2.753,5.45,6.1,3.5l36.378-21.01c3.348-1.93,3.365-5.07.017-7.03h0Zm0,0" transform="translate(-739.969 -1116.97)"/>
</svg>
