<svg id="delivery" xmlns="http://www.w3.org/2000/svg" width="104" height="119" viewBox="0 0 104 119">
  <defs>
    <style>
      .cls-1 {
        fill: none;
        stroke: #e01186;
        stroke-width: 4px;
      }

      .cls-1, .cls-2 {
        fill-rule: evenodd;
      }

      .cls-2 {
        fill: #e01186;
      }
    </style>
  </defs>
  <path id="Polygon_6" data-name="Polygon 6" class="cls-1" d="M1143.99,4352.01l-50-28.75v-57.5l50-28.75,50,28.75v57.5Z" transform="translate(-1092 -4235)"/>
  <path class="cls-2" d="M1124,4279.9v22.5a0.939,0.939,0,0,0,.91.9h6.94a3.638,3.638,0,0,0,7.03,0h13.41a3.638,3.638,0,0,0,7.03,0h3.77a0.937,0.937,0,0,0,.9-0.9v-8.55a0.891,0.891,0,0,0-.39-0.76l-3.89-2.57-2.62-5.6a0.921,0.921,0,0,0-.82-0.52h-6.82v-4.5a0.939,0.939,0,0,0-.91-0.9h-23.63A0.969,0.969,0,0,0,1124,4279.9Zm1.82,0.9h21.81v20.7h-8.75a3.645,3.645,0,0,0-7.04,0h-6.02v-20.7Zm2.64,1.8a0.939,0.939,0,0,0-.87.94,0.955,0.955,0,0,0,.95.86H1144a0.9,0.9,0,1,0,0-1.8h-15.54Zm3.64,3.6a0.9,0.9,0,1,0,.08,1.8H1144a0.9,0.9,0,1,0,0-1.8h-11.9Zm17.35,0h6.25l2.47,5.32a0.935,0.935,0,0,0,.31.37l3.7,2.44v7.17h-2.84a3.651,3.651,0,0,0-7.05,0h-2.84v-15.3Zm-10.08,3.6a0.9,0.9,0,1,0,.08,1.8H1144a0.9,0.9,0,1,0,0-1.8h-4.63Zm-4.01,10.8a1.8,1.8,0,1,1-1.82,1.8A1.791,1.791,0,0,1,1135.36,4300.6Zm20.45,0a1.8,1.8,0,1,1-1.81,1.8A1.791,1.791,0,0,1,1155.81,4300.6Z" transform="translate(-1092 -4235)"/>
</svg>
