<svg xmlns="http://www.w3.org/2000/svg" width="20" height="13" viewBox="0 0 20 13">
  <defs>
    <style>
      .cls-1 {
        fill: #fff;
        fill-rule: evenodd;
        opacity: 0.5;
      }
    </style>
  </defs>
  <path id="icon_pay" class="cls-1" d="M180,13.433V24.266a0.462,0.462,0,0,0,.454.433h3.473a1.838,1.838,0,0,0,3.515,0h6.7a1.838,1.838,0,0,0,3.515,0h1.882A0.462,0.462,0,0,0,200,24.266V20.15a0.437,0.437,0,0,0-.2-0.365l-1.946-1.24-1.307-2.694a0.466,0.466,0,0,0-.412-0.251h-4.408V13.433A0.462,0.462,0,0,0,191.271,13H180.454A0.479,0.479,0,0,0,180,13.433Zm0.909,0.434h9.908V16a0.188,0.188,0,0,0,0,.034v7.8h-3.375a1.843,1.843,0,0,0-3.522,0h-3.011V13.867Zm1.321,0.866a0.459,0.459,0,0,0-.433.453,0.464,0.464,0,0,0,.475.413H190a0.434,0.434,0,1,0,0-.866H182.23Zm1.818,1.733a0.434,0.434,0,1,0,.042.867H190a0.434,0.434,0,1,0,0-.867h-5.951Zm7.678,0h4.124l1.236,2.56a0.441,0.441,0,0,0,.156.183l1.847,1.171v3.453h-1.421a1.843,1.843,0,0,0-3.522,0h-2.42V16.466ZM187.684,18.2a0.46,0.46,0,0,0-.434.454,0.466,0.466,0,0,0,.476.413H190a0.434,0.434,0,1,0,0-.867h-2.315Zm-2,5.2a0.868,0.868,0,1,1-.909.867A0.882,0.882,0,0,1,185.681,23.4Zm10.226,0a0.868,0.868,0,1,1-.909.867A0.883,0.883,0,0,1,195.907,23.4Z" transform="translate(-180 -13)"/>
</svg>
