<svg xmlns="http://www.w3.org/2000/svg" width="30" height="30" viewBox="0 0 30 30">
  <defs>
    <style>
      .cls-1 {
        fill: #fff;
        fill-rule: evenodd;
      }
    </style>
  </defs>
  <path id="icon_earth" class="cls-1" d="M680,3360.01a15,15,0,1,0,15,14.99A15.008,15.008,0,0,0,680,3360.01Zm-6.911,6.19h0l0.032,0.03a2.52,2.52,0,0,1-.314.43c-0.1.11-.184,0.2-0.254,0.27a0.622,0.622,0,0,0-.612-0.53,0.636,0.636,0,0,0-.539.3,4.554,4.554,0,0,1-.4.31,8.263,8.263,0,0,0-2.875,3.21,1.968,1.968,0,0,1-1.109,1.15,0.923,0.923,0,0,0-.141.07,13.962,13.962,0,0,1,5.823-7.96,0.83,0.83,0,0,0,.144.27,0.726,0.726,0,0,0,.334.22C672.417,3364.95,672.392,3365.62,673.084,3366.2Zm-5.156,8.96a3.021,3.021,0,0,1,2.189,1.04,13.409,13.409,0,0,0,3.305,2.12c0.944,0.46,1.26.64,1.392,1.11a2.093,2.093,0,0,1-.2,1.51,2.892,2.892,0,0,0-.292,1.69l0.011,0.07c-0.039.02-.12,0.07-0.187,0.11a2.842,2.842,0,0,0-1.545,2.49c-0.053.39-.094,0.81-0.124,1.25a13.965,13.965,0,0,1-6.1-11.46q0-.63.057-1.26C666.748,3374.84,667.109,3375.14,667.928,3375.16Zm5.833,10.3a1.759,1.759,0,0,1,.959-1.63,1.227,1.227,0,0,0,.754-1.41,1.865,1.865,0,0,1,.223-1.04,3.24,3.24,0,0,0,.244-2.28,3.077,3.077,0,0,0-2.009-1.83,12.2,12.2,0,0,1-3.045-1.95,4.151,4.151,0,0,0-2.938-1.34c-0.256,0-.261,0-0.453-0.71a2.857,2.857,0,0,1-.147-0.76,0.818,0.818,0,0,1,.137-0.07,3.027,3.027,0,0,0,1.689-1.71,7.19,7.19,0,0,1,2.5-2.77h0a0.79,0.79,0,0,0,.667.35,1.98,1.98,0,0,0,1.34-.88,1.9,1.9,0,0,0,.631-1.33,1.123,1.123,0,0,0-.471-0.79,0.436,0.436,0,0,1-.077-0.07,1.255,1.255,0,0,1,.356-0.58,7.21,7.21,0,0,0,.452-0.63,2.139,2.139,0,0,0,.134.77,0.922,0.922,0,0,0,.837.67,0.789,0.789,0,0,0,.646-0.34c0.4-.54,3.223-1.19,4.15-1.4a3.032,3.032,0,0,0,2.274-2.3,14.187,14.187,0,0,1,2.721.82,1.407,1.407,0,0,1-.809.6l-0.251.08a1.67,1.67,0,0,0-1.2.74,1.439,1.439,0,0,0,.093,1.17,4.794,4.794,0,0,1-1.807.44,0.493,0.493,0,0,0-.264.08,2.96,2.96,0,0,0-1.309,1.87,2.222,2.222,0,0,0,.714,1.85,0.87,0.87,0,0,0,.136.15,3.489,3.489,0,0,1-.605.52,4.032,4.032,0,0,0-1.873,4.77c0.674,2.62,2.358,3.16,3.652,3.16a5.732,5.732,0,0,0,1.966-.38c0.344,0.38,1.051,1.5.687,4.14a4.922,4.922,0,0,0,.69,3.87,1.863,1.863,0,0,0,1.434.68,3.675,3.675,0,0,0,2.7-1.76c2.187-2.94,2.681-4.28,2.3-6.25-0.123-.64.133-0.86,0.793-1.26a1.465,1.465,0,0,0,.934-1.14c0.035-.03.124-0.1,0.169-0.13a3.134,3.134,0,0,0,.332-0.29,13.828,13.828,0,0,1-20.208,12.11C673.639,3386.6,673.689,3385.99,673.761,3385.46Zm18.913-12.94a1.071,1.071,0,0,0,.105,1.12c0.351,0.6.285,0.65,0.007,0.86a1.323,1.323,0,0,0-.635.98c-0.055.04-.178,0.12-0.367,0.24a2.221,2.221,0,0,0-1.342,2.48c0.306,1.59-.125,2.68-2.092,5.33a2.733,2.733,0,0,1-1.733,1.27,0.7,0.7,0,0,1-.583-0.25,4.034,4.034,0,0,1-.412-2.95c0.587-4.25-1.259-5.38-1.472-5.49a0.537,0.537,0,0,0-.275-0.07,0.576,0.576,0,0,0-.259.06,4.8,4.8,0,0,1-1.807.41c-1.3,0-2.122-.74-2.518-2.28a2.9,2.9,0,0,1,1.437-3.54,2.082,2.082,0,0,0,1.072-1.35,1.367,1.367,0,0,0-.455-1.07,1.122,1.122,0,0,1-.4-0.89,1.632,1.632,0,0,1,.663-0.95c0.814-.08,2.174-0.31,2.608-1.03a1.008,1.008,0,0,0,.058-0.94,2.333,2.333,0,0,1-.1-0.27,4.535,4.535,0,0,1,.441-0.14l0.258-.08a2.634,2.634,0,0,0,1.51-1.19,13.747,13.747,0,0,1,7.042,9.27A0.981,0.981,0,0,0,692.674,3372.52Zm-12.6-9.94a15.192,15.192,0,0,0-4.332,1.41,1.211,1.211,0,0,1,.376-0.85,0.874,0.874,0,0,0,.332-1,0.823,0.823,0,0,0-.223-0.3,14.037,14.037,0,0,1,5.2-.53A1.8,1.8,0,0,1,680.077,3362.58Zm-5.329.55-0.012-.03a0.629,0.629,0,0,0-.13-0.18,2.388,2.388,0,0,1,.274-0.07A2,2,0,0,0,674.748,3363.13Z" transform="translate(-665 -3360)"/>
</svg>
