<?xml version="1.0" encoding="utf-8"?>
<!-- Generator: Adobe Illustrator 19.2.1, SVG Export Plug-In . SVG Version: 6.00 Build 0)  -->
<svg version="1.1" id="Layer_1" xmlns="http://www.w3.org/2000/svg" xmlns:xlink="http://www.w3.org/1999/xlink" x="0px" y="0px"
	 viewBox="0 0 336 105" style="enable-background:new 0 0 336 105;" xml:space="preserve">
<style type="text/css">
	.st0{fill:#FFFFFF;}
</style>
<title>logotype_top</title>
<path class="st0" d="M45.6,55.7c0,1.1-2.5,6.6-7.6,16.4l-9.7,18.3c-0.2,0.6-0.7,1-1.3,1.2h-7.8c-0.5-0.2-1-0.6-1.1-1.2L8.8,72.6
	C3.6,62.6,1,57.1,1,56.2c0-2.1,0.1-5.2,0.2-9.4s0.2-7.3,0.2-9.4c0-1,0.3-1.5,0.9-1.5c0.5,0,1.2,0,2.2,0.1s1.7,0.1,2.2,0.1
	c0.5,0,1.2,0,2.1-0.1s1.7-0.1,2.2-0.1c0.4-0.1,0.8,0.2,0.9,0.6c0,0.1,0,0.1,0,0.2c0,2.1-0.1,5.4-0.4,9.7c-0.3,4.3-0.4,7.5-0.5,9.7
	c0,1.8,4,9.8,12.1,24.1c2.1-3.7,4.4-8,6.9-12.7c3.6-6.9,5.5-10.9,5.5-12.2c0-2.1-0.1-5.2-0.2-9.2c-0.1-4.1-0.2-7.2-0.2-9.2
	c0-0.4,0.3-0.8,0.7-0.8c0.1,0,0.1,0,0.2,0c0.5,0,1.2,0,2.2,0.1s1.7,0.1,2.1,0.1s1.2,0,2.1-0.1c0.9-0.1,1.7-0.1,2.1-0.1
	c0.5-0.1,0.9,0.2,1,0.7c0,0,0,0,0,0.1c-0.1,0.5-0.1,1,0,1.5c0,2,0,4.9,0.1,8.8S45.7,53.8,45.6,55.7"/>
<path class="st0" d="M82.1,70.2c0.2,1.7-0.9,3.3-2.5,3.9c-1.1,0.4-9.2,1.2-24.1,2.3c0.4,2.4,1.8,4.6,3.8,6c1.9,1.5,4.3,2.3,6.7,2.3
	c4.1,0,8.1-1.4,11.3-4l1.2-1c0.1,0,0.3,0,0.4,0.1c0.1,0.1,0.6,1,1.5,2.8c0.5,0.9,1,1.9,1.4,2.9c-0.1,0.4-0.3,0.7-0.6,0.9
	c-3.8,4.1-9.1,6.4-14.7,6.2c-6,0-10.8-1.8-14.4-5.5c-3.6-3.7-5.4-8.6-5.4-14.7c-0.1-5.2,1.7-10.3,5.1-14.2c3.2-4,8.1-6.4,13.3-6.3
	c4.7-0.1,9.2,1.9,12.2,5.5C80.5,60.9,82.2,65.5,82.1,70.2 M72.9,67.8c-0.2-4.5-3.8-8.2-8.3-8.4c-2.4,0-4.8,1.1-6.4,2.9
	c-1.8,1.7-2.8,4.1-2.8,6.6c0,0.6,0.5,0.8,1.4,0.8c4.6-0.1,9.2-0.5,13.8-1.2C72.1,68.4,72.9,68.1,72.9,67.8"/>
<path class="st0" d="M121.1,90.8c0.1,0.4-0.2,0.8-0.6,0.9c-0.1,0-0.1,0-0.2,0h-3.8h-3.8c-0.5,0-0.7-0.4-0.7-1.2c0-1.3,0-3.3,0.1-5.9
	c0.1-2.6,0.1-4.6,0.1-6c0-1.1,0-2.6,0-4.7c0-2.1,0-3.7,0-4.8c0-3-0.4-5.1-1.3-6.4c-1-1.5-3-2.2-5.8-2.2c-1.3,0-3.1,0.7-5.4,2.2
	c-2.5,1.5-3.7,2.9-3.7,4.1v23.8c0,0.7-0.2,1-0.7,1h-3.7h-3.7c-0.4,0-0.8-0.3-0.8-0.7c0-0.1,0-0.1,0-0.2c0-2.1,0-5.2,0.1-9.4
	c0.1-4.2,0.1-7.3,0.1-9.4c0-5.3-0.5-10.5-1.8-15.6c-0.1-0.2-0.1-0.3-0.1-0.5c0-0.3,0.2-0.5,0.5-0.6l4.5-0.7c2.8-0.5,4.3-0.7,4.4-0.7
	c0.1,0,0.2,0.2,0.3,0.6c0.1,1.7,0.4,3.4,0.9,5c1.3-1.1,3.1-2.4,5.3-4c2.3-1.6,5.1-2.5,7.9-2.5c4.9,0,8.2,1.4,10,4.3
	c1.3,2.1,2,5.5,2,10.3c0,0.8,0,2.1-0.1,3.8s-0.1,3-0.1,3.8c0,1.8,0,4.4,0.1,7.9c0.1,3.5,0.1,6.2,0.1,7.9"/>
<path class="st0" d="M165.3,36.2c0,3.4-0.1,8.5-0.4,15.3c-0.3,6.8-0.4,11.9-0.4,15.3c0,10.5,0.2,18.4,0.7,23.7v0.5
	c0,0.3-0.3,0.4-1.1,0.5c-0.7,0.1-1.4,0.1-2.1,0l-1.5-0.1c-0.4,0-1,0-1.7,0.1c-0.8,0.1-1.3,0.1-1.7,0.1s-0.6-0.9-0.6-2.8
	s-0.2-2.8-0.3-2.8c-0.2,0.1-0.4,0.3-0.6,0.5c-3.6,3.9-7.6,5.9-12.3,5.9c-5,0.1-9.8-2.2-12.9-6.1c-3.2-3.9-4.9-8.8-4.8-13.9
	c-0.2-5.2,1.6-10.2,4.8-14.2c3.2-3.9,8.1-6.2,13.2-6c3.1-0.1,6.1,1,8.6,2.9c1.1,1,2.2,2,3.3,3c0.2-0.1,0.3-0.3,0.3-0.6V44.8
	c0-0.9,0-2.2-0.1-4c-0.1-1.8-0.1-3.1-0.1-4c0-0.6,0.2-1,0.6-1c1,0,2.4-0.1,4.3-0.3s3.3-0.3,4.2-0.3c0.4,0,0.7,0.3,0.7,0.7
	C165.3,36,165.2,36.1,165.3,36.2 M155.5,72.2c0.1-3-1-6-2.9-8.4c-1.8-2.4-4.6-3.8-7.6-3.8c-3.1-0.1-6,1.4-7.9,3.8
	c-2,2.4-3.1,5.5-3,8.6c0,3.1,1.1,6,3.1,8.3c1.9,2.4,4.8,3.8,7.8,3.7c3,0,5.9-1.4,7.7-3.8C154.6,78.3,155.6,75.4,155.5,72.2"/>
<path class="st0" d="M249.6,90.2c0,1-0.3,1.5-0.8,1.5h-3.7h-3.7c-0.7,0-1-0.4-1-1.3c0-1.3,0-3.2,0.1-5.8c0.1-2.6,0.1-4.5,0.1-5.8
	c0-1.2,0-3.1-0.1-5.5c-0.1-2.5-0.1-4.3-0.1-5.6c0-4.8-2.2-7.2-6.6-7.2c-1.4,0-3.3,0.7-5.6,2.2c-2.5,1.6-3.7,3-3.7,4.3v23.5
	c0,0.8-0.3,1.2-0.8,1.2h-3.6h-3.6c-0.5,0-0.9-0.4-0.9-0.8c0-0.1,0-0.2,0-0.2V71.3c0-3.1-0.2-9.8-0.5-19.9c-0.1-3.1-0.3-7.8-0.7-14
	c0-0.2-0.1-0.4-0.1-0.6c-0.1-0.4,0.1-0.7,0.5-0.8c1.5-0.2,2.9-0.3,4.4-0.2c0.8,0,1.6-0.1,2.4-0.3c0.8-0.2,1.6-0.3,2.4-0.3
	c0.3,0,0.5,0.2,0.5,0.8c0,2.5-0.1,6.2-0.3,11.2s-0.3,8.7-0.2,11.2c0,0.6,0.1,0.9,0.3,1c1.3-1.1,3-2.5,5.1-4.1
	c2.4-1.6,5.2-2.4,8.1-2.4c4.9,0,8.2,1.5,10.1,4.5c1.3,2.2,2,5.6,2,10.3c0,0.8,0,2.1-0.1,3.8c0,1.7-0.1,3-0.1,3.8
	c0,1.7,0,4.2,0.1,7.6S249.6,88.6,249.6,90.2"/>
<path class="st0" d="M291.6,72.2c0.1,5.2-1.8,10.3-5.3,14.2c-6.7,7.5-18.2,8.1-25.6,1.4c-0.5-0.5-1-0.9-1.4-1.4
	c-3.5-3.8-5.5-8.9-5.3-14.1c-0.1-5.2,1.8-10.3,5.3-14.1c6.8-7.5,18.4-8,25.9-1.1c0.4,0.4,0.8,0.7,1.1,1.1
	C289.8,62,291.7,67,291.6,72.2 M283.4,72.3c0.1-3-1-6-2.9-8.3c-1.9-2.3-4.7-3.7-7.7-3.6c-3,0-5.8,1.3-7.7,3.6
	c-3.9,4.8-3.9,11.7,0,16.6c3.4,4.3,9.7,4.9,13.9,1.5c0.6-0.4,1.1-0.9,1.5-1.5C282.4,78.3,283.4,75.3,283.4,72.3"/>
<path class="st0" d="M335,72.5c0.1,5.1-1.7,10.1-5,13.9c-3.1,4-7.9,6.3-13,6.2c-3.1,0-6.1-1-8.5-3.1c-1-1.1-2.1-2.1-3.2-3.1
	c-0.2,0.2-0.3,0.4-0.3,0.6c0,0.2,0,1.6,0,4.4v11.2c0,0.8-0.3,1.3-0.9,1.3c-4,0-6.4-0.1-7.1-0.2c-0.5,0-0.9-0.4-0.9-1c0,0,0,0,0,0
	c0-3.4,0-8.5,0.1-15.2s0.1-11.9,0.1-15.2c0-5.9-0.4-11.7-1.3-17.5c0-0.2-0.1-0.4-0.1-0.6c0-0.3,0.1-0.5,0.4-0.5
	c1-0.1,2.4-0.2,4.3-0.4c2.5-0.5,4-0.7,4.3-0.7c0.4,0,0.7,0.8,0.9,2.4c0.1,1.1,0.1,2.1,0.2,3.1c0,0.2,0.1,0.5,0.2,0.6
	c0.2-0.2,0.4-0.3,0.6-0.6c3.6-3.8,7.3-5.7,11-5.7c5,0,9.8,2.2,13,6.2C333.2,62.4,335.1,67.3,335,72.5 M325.9,72.3c0.1-3-1-6-2.9-8.4
	c-1.8-2.4-4.6-3.9-7.7-3.8c-3,0-5.8,1.5-7.4,4c-1.8,2.4-2.7,5.3-2.6,8.3c-0.1,3,0.9,6,2.7,8.4c1.8,2.4,4.6,3.9,7.6,3.8
	c3,0,5.8-1.5,7.5-4C324.9,78.3,325.9,75.3,325.9,72.3"/>
<path class="st0" d="M30.2,3.5c-3.1-0.9-6.4-1.2-9.6-0.9c-9.1,0.9-10.6,9.3-3.9,12.8c3.5,1.8,7.9,2.9,11.7,4.5c4.7,2,8.4,6,5.9,10.5
	c-0.3,0.6-0.7,1.1-1.1,1.6c-3,3-6.7,5.2-10.7,6.5L23,38c13.3-11.9,1.5-13.8-7.7-17.1c-3-1.1-5.7-2.3-7.2-4c-3-3.6-3.8-9.2,2.3-13.3
	C13.4,1.8,17,0.9,20.6,1c3.1,0,6.2,0.7,9,2.2C29.8,3.3,30,3.4,30.2,3.5"/>
<path class="st0" d="M204.1,37.1c-2.7-1-5.6-1.5-8.5-1.7c-4.2-0.1-8.2,0.8-11.6,3.5c-1.6,1.2-2.8,2.9-3.4,4.8c-0.7,2.4-0.2,5,1.4,7
	c2.2,2.8,5,5,8.2,6.4c3.4,1.7,6.9,3.2,10.3,4.9c3.1,1.5,5.8,3.7,7.8,6.5c2.3,3.1,2.6,7.2,0.9,10.6c-0.7,1.4-1.5,2.7-2.6,3.8
	c-3.6,3.9-7.9,7-12.8,9.1c0.2-0.2,0.4-0.5,0.6-0.7c3.1-2.6,5.8-5.6,7.9-9c1.5-2.2,2.2-4.9,1.8-7.5c-0.5-2.2-1.8-4.1-3.7-5.4
	c-2.7-1.9-5.5-3.4-8.6-4.6c-3.3-1.4-6.7-2.9-9.9-4.6c-2.6-1.4-4.8-3.4-6.5-5.9c-4-5.6-3.3-11.9,1.9-16.4c7.4-5.9,17.7-6.5,25.7-1.6
	C203.6,36.7,203.8,36.9,204.1,37.1"/>
</svg>
